<mxfile host="app.diagrams.net" agent="Mozilla/5.0 (Windows NT 10.0; Win64; x64; rv:133.0) Gecko/20100101 Firefox/133.0" version="26.0.3">
  <diagram name="第 1 页" id="0XD-1JU4RIUbnBhpHcL0">
    <mxGraphModel dx="794" dy="467" grid="1" gridSize="10" guides="1" tooltips="1" connect="1" arrows="1" fold="1" page="1" pageScale="1" pageWidth="827" pageHeight="1169" math="0" shadow="0">
      <root>
        <mxCell id="0" />
        <mxCell id="1" parent="0" />
        <mxCell id="K8NXrhP9iIMU2ijMPEGZ-4" value="&lt;font style=&quot;font-size: 16px;&quot;&gt;IO&lt;/font&gt;" style="rounded=0;whiteSpace=wrap;html=1;fillColor=#f5f5f5;fontColor=#333333;strokeColor=#666666;" vertex="1" parent="1">
          <mxGeometry x="240" y="110" width="80" height="40" as="geometry" />
        </mxCell>
        <mxCell id="K8NXrhP9iIMU2ijMPEGZ-5" value="&lt;font style=&quot;font-size: 16px;&quot;&gt;计算&lt;/font&gt;" style="rounded=0;whiteSpace=wrap;html=1;fillColor=#dae8fc;strokeColor=#6c8ebf;" vertex="1" parent="1">
          <mxGeometry x="180" y="110" width="60" height="40" as="geometry" />
        </mxCell>
        <mxCell id="K8NXrhP9iIMU2ijMPEGZ-6" value="&lt;font style=&quot;font-size: 16px;&quot;&gt;计算&lt;/font&gt;" style="rounded=0;whiteSpace=wrap;html=1;fillColor=#dae8fc;strokeColor=#6c8ebf;" vertex="1" parent="1">
          <mxGeometry x="320" y="110" width="80" height="40" as="geometry" />
        </mxCell>
        <mxCell id="K8NXrhP9iIMU2ijMPEGZ-7" value="&lt;font style=&quot;font-size: 16px;&quot;&gt;IO&lt;/font&gt;" style="rounded=0;whiteSpace=wrap;html=1;fillColor=#f5f5f5;fontColor=#333333;strokeColor=#666666;" vertex="1" parent="1">
          <mxGeometry x="460" y="110" width="80" height="40" as="geometry" />
        </mxCell>
        <mxCell id="K8NXrhP9iIMU2ijMPEGZ-8" value="&lt;font style=&quot;font-size: 16px;&quot;&gt;计算&lt;/font&gt;" style="rounded=0;whiteSpace=wrap;html=1;fillColor=#f8cecc;strokeColor=#b85450;" vertex="1" parent="1">
          <mxGeometry x="400" y="110" width="60" height="40" as="geometry" />
        </mxCell>
        <mxCell id="K8NXrhP9iIMU2ijMPEGZ-9" value="&lt;font style=&quot;font-size: 16px;&quot;&gt;计算&lt;/font&gt;" style="rounded=0;whiteSpace=wrap;html=1;fillColor=#f8cecc;strokeColor=#b85450;" vertex="1" parent="1">
          <mxGeometry x="540" y="110" width="80" height="40" as="geometry" />
        </mxCell>
        <mxCell id="K8NXrhP9iIMU2ijMPEGZ-10" value="&lt;font style=&quot;font-size: 16px;&quot;&gt;IO&lt;/font&gt;" style="rounded=0;whiteSpace=wrap;html=1;fillColor=#f5f5f5;fontColor=#333333;strokeColor=#666666;" vertex="1" parent="1">
          <mxGeometry x="680" y="110" width="80" height="40" as="geometry" />
        </mxCell>
        <mxCell id="K8NXrhP9iIMU2ijMPEGZ-11" value="&lt;font style=&quot;font-size: 16px;&quot;&gt;计算&lt;/font&gt;" style="rounded=0;whiteSpace=wrap;html=1;fillColor=#d5e8d4;strokeColor=#82b366;" vertex="1" parent="1">
          <mxGeometry x="620" y="110" width="60" height="40" as="geometry" />
        </mxCell>
        <mxCell id="K8NXrhP9iIMU2ijMPEGZ-12" value="&lt;font style=&quot;font-size: 16px;&quot;&gt;计算&lt;/font&gt;" style="rounded=0;whiteSpace=wrap;html=1;fillColor=#d5e8d4;strokeColor=#82b366;" vertex="1" parent="1">
          <mxGeometry x="760" y="110" width="80" height="40" as="geometry" />
        </mxCell>
        <mxCell id="K8NXrhP9iIMU2ijMPEGZ-13" value="&lt;font style=&quot;font-size: 16px;&quot;&gt;同步式编程&lt;/font&gt;" style="text;html=1;align=center;verticalAlign=middle;whiteSpace=wrap;rounded=0;" vertex="1" parent="1">
          <mxGeometry x="70" y="115" width="100" height="30" as="geometry" />
        </mxCell>
        <mxCell id="K8NXrhP9iIMU2ijMPEGZ-14" value="&lt;font style=&quot;font-size: 16px;&quot;&gt;协程式编程&lt;/font&gt;" style="text;html=1;align=center;verticalAlign=middle;whiteSpace=wrap;rounded=0;" vertex="1" parent="1">
          <mxGeometry x="70" y="205" width="100" height="30" as="geometry" />
        </mxCell>
        <mxCell id="K8NXrhP9iIMU2ijMPEGZ-15" value="&lt;font style=&quot;font-size: 16px;&quot;&gt;计算&lt;/font&gt;" style="rounded=0;whiteSpace=wrap;html=1;fillColor=#dae8fc;strokeColor=#6c8ebf;" vertex="1" parent="1">
          <mxGeometry x="180" y="200" width="60" height="40" as="geometry" />
        </mxCell>
        <mxCell id="K8NXrhP9iIMU2ijMPEGZ-16" value="&lt;font style=&quot;font-size: 16px;&quot;&gt;IO&lt;/font&gt;" style="rounded=0;whiteSpace=wrap;html=1;fillColor=#f5f5f5;fontColor=#333333;strokeColor=#666666;" vertex="1" parent="1">
          <mxGeometry x="240" y="240" width="80" height="40" as="geometry" />
        </mxCell>
        <mxCell id="K8NXrhP9iIMU2ijMPEGZ-17" value="&lt;font style=&quot;font-size: 16px;&quot;&gt;计算&lt;/font&gt;" style="rounded=0;whiteSpace=wrap;html=1;fillColor=#f8cecc;strokeColor=#b85450;" vertex="1" parent="1">
          <mxGeometry x="240" y="200" width="60" height="40" as="geometry" />
        </mxCell>
        <mxCell id="K8NXrhP9iIMU2ijMPEGZ-18" value="&lt;font style=&quot;font-size: 16px;&quot;&gt;IO&lt;/font&gt;" style="rounded=0;whiteSpace=wrap;html=1;fillColor=#f5f5f5;fontColor=#333333;strokeColor=#666666;" vertex="1" parent="1">
          <mxGeometry x="300" y="300" width="80" height="40" as="geometry" />
        </mxCell>
        <mxCell id="K8NXrhP9iIMU2ijMPEGZ-19" value="&lt;font style=&quot;font-size: 16px;&quot;&gt;计算&lt;/font&gt;" style="rounded=0;whiteSpace=wrap;html=1;fillColor=#d5e8d4;strokeColor=#82b366;" vertex="1" parent="1">
          <mxGeometry x="300" y="200" width="60" height="40" as="geometry" />
        </mxCell>
        <mxCell id="K8NXrhP9iIMU2ijMPEGZ-20" value="&lt;font style=&quot;font-size: 16px;&quot;&gt;IO&lt;/font&gt;" style="rounded=0;whiteSpace=wrap;html=1;fillColor=#f5f5f5;fontColor=#333333;strokeColor=#666666;" vertex="1" parent="1">
          <mxGeometry x="360" y="360" width="80" height="40" as="geometry" />
        </mxCell>
        <mxCell id="K8NXrhP9iIMU2ijMPEGZ-21" value="&lt;font style=&quot;font-size: 16px;&quot;&gt;计算&lt;/font&gt;" style="rounded=0;whiteSpace=wrap;html=1;fillColor=#dae8fc;strokeColor=#6c8ebf;" vertex="1" parent="1">
          <mxGeometry x="360" y="200" width="80" height="40" as="geometry" />
        </mxCell>
        <mxCell id="K8NXrhP9iIMU2ijMPEGZ-22" value="&lt;font style=&quot;font-size: 16px;&quot;&gt;计算&lt;/font&gt;" style="rounded=0;whiteSpace=wrap;html=1;fillColor=#f8cecc;strokeColor=#b85450;" vertex="1" parent="1">
          <mxGeometry x="440" y="200" width="80" height="40" as="geometry" />
        </mxCell>
        <mxCell id="K8NXrhP9iIMU2ijMPEGZ-23" value="&lt;font style=&quot;font-size: 16px;&quot;&gt;计算&lt;/font&gt;" style="rounded=0;whiteSpace=wrap;html=1;fillColor=#d5e8d4;strokeColor=#82b366;" vertex="1" parent="1">
          <mxGeometry x="520" y="200" width="80" height="40" as="geometry" />
        </mxCell>
        <mxCell id="K8NXrhP9iIMU2ijMPEGZ-24" value="" style="endArrow=none;dashed=1;html=1;dashPattern=1 3;strokeWidth=2;rounded=0;entryX=0.75;entryY=0;entryDx=0;entryDy=0;exitX=0;exitY=0;exitDx=0;exitDy=0;" edge="1" parent="1" source="K8NXrhP9iIMU2ijMPEGZ-18" target="K8NXrhP9iIMU2ijMPEGZ-16">
          <mxGeometry width="50" height="50" relative="1" as="geometry">
            <mxPoint x="430" y="260" as="sourcePoint" />
            <mxPoint x="480" y="210" as="targetPoint" />
          </mxGeometry>
        </mxCell>
        <mxCell id="K8NXrhP9iIMU2ijMPEGZ-25" value="" style="endArrow=none;dashed=1;html=1;dashPattern=1 3;strokeWidth=2;rounded=0;entryX=0;entryY=1;entryDx=0;entryDy=0;exitX=0;exitY=0;exitDx=0;exitDy=0;" edge="1" parent="1" source="K8NXrhP9iIMU2ijMPEGZ-20" target="K8NXrhP9iIMU2ijMPEGZ-21">
          <mxGeometry width="50" height="50" relative="1" as="geometry">
            <mxPoint x="430" y="260" as="sourcePoint" />
            <mxPoint x="480" y="210" as="targetPoint" />
          </mxGeometry>
        </mxCell>
      </root>
    </mxGraphModel>
  </diagram>
</mxfile>
